<?xml version="1.0" encoding="UTF-8"?>
<svg id="_레이어_2" data-name="레이어 2" xmlns="http://www.w3.org/2000/svg" viewBox="0 0 329 329">
  <defs>
    <style>
      .cls-1 {
        fill: #f40f0f;
      }

      .cls-2 {
        fill: none;
      }
    </style>
  </defs>
  <g id="_레이어_1-2" data-name="레이어 1">
    <circle class="cls-2" cx="164.5" cy="164.5" r="164.5"/>
    <path class="cls-1" d="m289.07,128.22c-2.98-12.45-15.49-20.12-27.95-17.14-8.77,2.1-15.16,8.93-17.14,17.13-1.6,3.54-4.59,6.34-8.29,7.66l-44.96,13.64c-3.58.73-7.29.05-10.36-1.81-1.42-1.3-3.01-2.42-4.7-3.33h.32c-.36-.11-.71-.24-1.06-.39-.32-.16-.64-.3-.97-.45-3.11-1.57-5.56-4.23-6.87-7.47l-14.72-48.51.55,1.15c-.69-4.06.41-8.21,2.93-11.38,5.78-5.51,8.56-13.86,6.56-22.19-2.98-12.45-15.49-20.12-27.95-17.14-12.45,2.98-20.12,15.5-17.14,27.95.22.91.49,1.79.81,2.64l-.1-.09c.07.12.13.23.2.35.32.83.68,1.64,1.09,2.42,1.24,3.64.99,7.7-.78,11.19l.65-.7-49.67,86.03c-2.4,2.79-5.83,4.61-9.57,4.96l.74.14c-1.06.1-2.12.27-3.18.53-12.45,2.98-20.12,15.5-17.14,27.95,2.98,12.45,15.49,20.12,27.95,17.14,12.45-2.98,20.12-15.5,17.14-27.95-.5-2.1-1.28-4.06-2.28-5.85-1.25-3.6-1.01-7.57.64-10.98l48.07-83.25c.99-1.23,2.17-2.28,3.48-3.12,1.41,1.94,2.34,4.24,2.65,6.68l.1-.67,13.28,43.75c.53,4.14-.76,8.39-3.6,11.53l.78-.49c-5.66,5.51-8.36,13.78-6.39,22.03,2.98,12.45,15.49,20.12,27.95,17.14,10.09-2.42,17.04-11.09,17.73-20.92l59.01-17.91c-.03,1.87-.41,3.73-1.16,5.47l-51.51,89.21c-1.18.75-2.46,1.32-3.81,1.71-2.05-.07-4.14.12-6.23.62-12.45,2.98-20.12,15.5-17.14,27.95,2.98,12.45,15.49,20.12,27.95,17.14s20.12-15.5,17.14-27.95c-.49-2.04-1.24-3.95-2.2-5.71-1.48-4.26-.88-9.02,1.66-12.79l-.41.34,48.3-83.66c2.18-2.17,5.02-3.63,8.1-4.08,1.45-.07,2.91-.26,4.38-.61,12.45-2.98,20.12-15.5,17.14-27.95Z"/>
  </g>
</svg>